<svg xmlns="http://www.w3.org/2000/svg" width="1280" height="760" viewBox="0 0 1280 760" role="img" aria-labelledby="title desc">
  <title id="title">Mayar Eve Builder Architecture</title>
  <desc id="desc">Architecture diagram showing Eve session input flowing through Mayar root orchestration, subagents, human approval, sandbox validation, autofix, security review, and final response.</desc>
  <defs>
    <marker id="arrow" markerWidth="12" markerHeight="12" refX="10" refY="6" orient="auto">
      <path d="M2,2 L10,6 L2,10 Z" fill="#344054"/>
    </marker>
    <style>
      .bg { fill: #f7f8fb; }
      .band { fill: #ffffff; stroke: #d0d5dd; stroke-width: 2; }
      .root { fill: #e8f1ff; stroke: #2f6fed; stroke-width: 2; }
      .agent { fill: #ecfdf3; stroke: #16a34a; stroke-width: 2; }
      .tool { fill: #fff7ed; stroke: #f97316; stroke-width: 2; }
      .stop { fill: #fef2f2; stroke: #ef4444; stroke-width: 2; }
      .text { fill: #101828; font-family: Inter, ui-sans-serif, system-ui, -apple-system, BlinkMacSystemFont, "Segoe UI", sans-serif; font-size: 21px; font-weight: 700; }
      .small { fill: #475467; font-family: Inter, ui-sans-serif, system-ui, -apple-system, BlinkMacSystemFont, "Segoe UI", sans-serif; font-size: 15px; font-weight: 500; }
      .label { fill: #344054; font-family: Inter, ui-sans-serif, system-ui, -apple-system, BlinkMacSystemFont, "Segoe UI", sans-serif; font-size: 14px; font-weight: 600; }
      .line { stroke: #344054; stroke-width: 2.4; fill: none; marker-end: url(#arrow); }
      .loop { stroke: #667085; stroke-width: 2.2; fill: none; stroke-dasharray: 8 7; marker-end: url(#arrow); }
    </style>
  </defs>

  <rect class="bg" width="1280" height="760"/>

  <rect class="band" x="46" y="42" width="1188" height="130" rx="18"/>
  <text class="text" x="74" y="88">Public Eve HTTP Surface</text>
  <text class="small" x="74" y="122">/eve/v1/session starts durable sessions. /eve/v1/session/:id/stream replays NDJSON events.</text>
  <rect class="root" x="760" y="72" width="420" height="72" rx="14"/>
  <text class="text" x="788" y="105">Mayar Root Agent</text>
  <text class="small" x="788" y="130">Coordinates routing, approval, tools, retries, final summary</text>

  <rect class="agent" x="70" y="245" width="190" height="82" rx="14"/>
  <text class="text" x="102" y="278">Intent</text>
  <text class="small" x="96" y="303">route + safety gate</text>

  <rect class="agent" x="315" y="245" width="210" height="82" rx="14"/>
  <text class="text" x="347" y="278">Conversation</text>
  <text class="small" x="346" y="303">chat, refusal, summaries</text>

  <rect class="agent" x="580" y="245" width="210" height="82" rx="14"/>
  <text class="text" x="611" y="278">Orchestrator</text>
  <text class="small" x="614" y="303">build plan handoff</text>

  <rect class="agent" x="845" y="245" width="240" height="82" rx="14"/>
  <text class="text" x="876" y="278">Design Research</text>
  <text class="small" x="879" y="303">approval-ready design spec</text>

  <rect class="tool" x="945" y="392" width="230" height="82" rx="14"/>
  <text class="text" x="979" y="425">ask_question</text>
  <text class="small" x="980" y="450">approve, revise, stop</text>

  <rect class="agent" x="70" y="552" width="220" height="82" rx="14"/>
  <text class="text" x="105" y="585">Code Writer</text>
  <text class="small" x="101" y="610">Next.js files + quality plan</text>

  <rect class="tool" x="350" y="552" width="230" height="82" rx="14"/>
  <text class="text" x="383" y="585">Sandbox Tools</text>
  <text class="small" x="379" y="610">write, quality, preview</text>

  <rect class="agent" x="640" y="552" width="190" height="82" rx="14"/>
  <text class="text" x="689" y="585">Autofix</text>
  <text class="small" x="678" y="610">repair failed builds</text>

  <rect class="agent" x="890" y="552" width="220" height="82" rx="14"/>
  <text class="text" x="929" y="585">Security Review</text>
  <text class="small" x="929" y="610">secret + risk review</text>

  <rect class="root" x="70" y="665" width="1040" height="56" rx="14"/>
  <text class="text" x="98" y="700">Final Summary</text>
  <text class="small" x="265" y="699">validated files, command results, sandbox id, preview command, security status</text>

  <path class="line" d="M760 108 H300 C230 108 180 158 166 244"/>
  <path class="line" d="M260 286 H314"/>
  <path class="line" d="M525 286 H579"/>
  <path class="line" d="M790 286 H844"/>
  <path class="line" d="M965 327 V391"/>
  <path class="line" d="M945 433 C760 450 420 483 180 551"/>
  <path class="line" d="M290 593 H349"/>
  <path class="line" d="M580 593 H639"/>
  <path class="loop" d="M735 552 C715 500 535 500 465 552"/>
  <text class="label" x="565" y="511">up to 4 repair attempts</text>
  <path class="line" d="M830 593 H889"/>
  <path class="loop" d="M1000 552 C1010 506 855 492 735 552"/>
  <text class="label" x="862" y="507">security fixes</text>
  <path class="line" d="M1000 634 V664"/>
  <path class="line" d="M180 634 V664"/>
  <path class="line" d="M420 327 C430 374 650 407 944 426"/>

  <rect class="stop" x="70" y="392" width="240" height="82" rx="14"/>
  <text class="text" x="110" y="425">Unsafe Stop</text>
  <text class="small" x="98" y="450">refuse before builder agents</text>
  <path class="line" d="M166 327 V391"/>
</svg>
